<?xml version="1.0" standalone="no"?>
<!DOCTYPE svg PUBLIC "-//W3C//DTD SVG 20010904//EN"
 "http://www.w3.org/TR/2001/REC-SVG-20010904/DTD/svg10.dtd">
<svg version="1.0" xmlns="http://www.w3.org/2000/svg"
 width="1200.000000pt" height="1200.000000pt" viewBox="0 0 1200.000000 1200.000000"
 preserveAspectRatio="xMidYMid meet">
<metadata>
Created by potrace 1.14, written by Peter Selinger 2001-2017
</metadata>
<g transform="translate(0.000000,1200.000000) scale(0.100000,-0.100000)"
fill="#000000" stroke="none">
<path d="M5377 11363 c-3 -2 -56 -6 -119 -9 -182 -6 -277 -12 -508 -30 -41 -3
-97 -8 -125 -10 -27 -3 -72 -7 -100 -9 -81 -7 -220 -22 -275 -30 -14 -2 -47
-6 -75 -10 -27 -3 -63 -7 -80 -9 -16 -2 -52 -7 -80 -11 -27 -3 -63 -8 -80 -11
-53 -9 -89 -15 -125 -19 -19 -2 -46 -7 -60 -11 -25 -6 -69 -14 -105 -18 -11
-1 -33 -6 -50 -9 -44 -11 -76 -17 -110 -23 -50 -9 -68 -13 -115 -24 -25 -7
-57 -13 -72 -15 -15 -2 -35 -8 -45 -13 -10 -4 -25 -8 -33 -7 -8 0 -30 -5 -47
-12 -18 -7 -36 -13 -40 -13 -5 0 -26 -5 -48 -11 -22 -6 -47 -13 -55 -14 -8 -2
-34 -10 -57 -19 -24 -8 -43 -13 -43 -10 0 2 -9 0 -21 -6 -11 -6 -30 -13 -42
-15 -12 -3 -31 -9 -42 -14 -22 -10 -117 -45 -125 -46 -3 0 -16 -7 -30 -15 -14
-7 -25 -13 -25 -12 0 13 -265 -116 -285 -139 -3 -3 -27 -20 -55 -39 -97 -65
-241 -185 -348 -290 -59 -59 -109 -104 -112 -102 -3 3 -5 -1 -5 -9 0 -8 -17
-33 -38 -55 -63 -70 -80 -91 -152 -192 -38 -53 -73 -102 -77 -108 -18 -24 -38
-57 -108 -179 -56 -96 -172 -339 -163 -340 1 -1 -4 -12 -13 -25 -8 -14 -28
-61 -43 -105 -15 -44 -31 -89 -36 -100 -13 -33 -22 -59 -26 -85 -3 -13 -10
-30 -16 -37 -6 -7 -8 -13 -5 -13 3 0 -2 -21 -10 -47 -8 -27 -16 -56 -19 -65
-11 -47 -15 -65 -19 -83 -9 -41 -15 -66 -21 -87 -3 -13 -7 -34 -8 -48 -2 -14
-7 -36 -11 -50 -4 -14 -9 -36 -10 -50 -2 -14 -6 -41 -10 -60 -7 -35 -10 -57
-19 -135 -9 -74 -15 -130 -23 -210 -9 -94 -9 -2364 0 -2570 17 -371 19 -418
42 -715 14 -173 26 -305 40 -410 3 -25 8 -65 11 -90 10 -92 31 -245 41 -300 8
-52 14 -86 17 -115 2 -16 5 -30 6 -30 1 0 3 -9 5 -20 8 -56 15 -92 20 -115 3
-14 8 -38 11 -55 2 -16 6 -39 9 -50 3 -19 6 -32 21 -95 3 -14 7 -38 10 -55 3
-16 9 -41 14 -55 5 -14 11 -38 14 -55 3 -16 13 -57 21 -90 9 -33 17 -64 18
-70 2 -5 6 -16 10 -23 5 -6 6 -12 3 -12 -3 0 1 -18 9 -40 8 -22 12 -40 8 -40
-3 0 0 -7 7 -15 7 -8 9 -15 5 -15 -4 0 -2 -7 5 -15 7 -8 10 -15 6 -15 -3 0 0
-16 8 -35 8 -19 12 -35 9 -35 -3 0 0 -7 7 -15 7 -8 9 -15 5 -15 -4 0 -2 -7 5
-15 7 -8 9 -15 5 -15 -4 0 -3 -6 3 -13 6 -6 11 -16 12 -22 4 -19 27 -88 40
-120 18 -46 35 -90 35 -95 0 -3 7 -16 15 -30 7 -14 13 -27 12 -30 0 -3 6 -21
15 -40 9 -19 24 -55 35 -80 42 -96 135 -279 187 -365 30 -49 59 -100 65 -112
6 -13 14 -23 19 -23 4 0 7 -7 7 -15 0 -8 5 -15 10 -15 6 0 10 -7 10 -15 0 -8
5 -15 10 -15 6 0 10 -4 10 -10 0 -8 35 -60 83 -120 7 -8 28 -35 47 -60 114
-147 313 -343 485 -478 6 -4 26 -19 45 -32 19 -14 43 -33 54 -42 11 -10 25
-18 32 -18 7 0 14 -4 16 -9 8 -20 428 -251 428 -235 0 2 13 -2 30 -11 16 -8
31 -15 32 -14 2 2 14 -4 28 -11 14 -8 30 -15 35 -16 6 -1 27 -9 48 -18 20 -9
37 -13 37 -10 0 4 6 1 13 -5 8 -6 22 -12 33 -14 10 -1 25 -6 32 -10 6 -5 12
-6 12 -2 0 3 13 -1 28 -9 16 -8 42 -17 58 -20 16 -2 30 -5 32 -6 1 -2 7 -4 12
-5 6 -1 11 -3 13 -5 1 -1 9 -3 17 -5 8 -2 26 -6 40 -9 14 -3 34 -7 45 -10 158
-40 193 -48 210 -51 11 -1 20 -3 20 -4 0 -2 7 -4 15 -6 41 -9 77 -16 95 -20
11 -2 31 -6 45 -9 14 -3 37 -7 53 -10 15 -3 35 -7 45 -10 9 -3 33 -7 52 -10
19 -3 49 -8 65 -12 17 -3 39 -7 50 -9 11 -2 36 -7 55 -10 19 -3 46 -8 60 -10
117 -18 153 -23 210 -29 19 -3 55 -7 80 -11 25 -4 61 -8 80 -10 19 -2 60 -6
90 -10 30 -3 82 -8 115 -11 33 -2 92 -7 130 -11 88 -7 967 -13 978 -6 5 3 43
7 85 9 43 2 95 6 117 9 22 2 67 7 100 10 60 6 85 9 160 20 22 4 51 8 65 10 71
9 127 18 143 21 9 2 25 6 36 8 10 2 34 7 52 10 19 3 45 8 59 11 14 3 39 8 55
11 39 6 70 12 70 14 0 1 9 3 20 5 26 5 59 13 63 15 1 2 11 4 22 5 11 1 21 3
23 5 1 1 9 3 17 5 8 2 26 7 40 10 14 3 32 8 40 10 8 2 17 4 20 5 3 1 10 3 15
5 6 1 12 3 15 4 5 2 10 4 55 15 11 2 39 11 63 20 23 8 42 13 42 11 0 -2 12 2
27 10 15 8 30 12 35 9 4 -3 8 0 8 7 0 7 3 10 6 6 3 -3 29 3 58 15 28 11 56 21
61 22 6 1 19 7 30 13 11 6 23 12 27 12 12 2 40 13 78 29 19 8 37 16 40 17 3 1
26 12 51 24 l46 24 -3 86 c-3 90 -10 258 -19 446 -3 61 -7 159 -9 218 -7 147
-8 149 -51 131 -19 -8 -35 -12 -35 -10 0 3 -16 -2 -35 -10 -19 -8 -37 -14 -40
-14 -3 0 -6 0 -7 -1 -4 -1 -29 -6 -58 -12 -14 -3 -56 -13 -95 -22 -38 -10 -81
-19 -95 -21 -32 -5 -65 -12 -65 -14 0 -2 -71 -16 -130 -25 -11 -2 -33 -6 -50
-9 -48 -9 -158 -28 -185 -31 -14 -1 -43 -5 -65 -9 -22 -3 -61 -8 -87 -11 -27
-3 -69 -8 -95 -11 -27 -3 -70 -8 -98 -9 -27 -2 -90 -7 -140 -11 -212 -16 -819
-5 -1085 21 -25 2 -70 6 -100 9 -30 3 -71 8 -90 11 -62 12 -95 17 -110 17 -8
0 -31 4 -51 9 -20 5 -49 11 -65 14 -26 4 -68 13 -129 28 -11 3 -32 10 -47 16
-16 6 -28 8 -28 6 0 -4 -14 0 -95 31 -11 4 -24 8 -30 9 -32 8 -258 118 -275
135 -3 3 -27 21 -55 40 -86 59 -181 150 -241 231 -83 112 -94 128 -94 143 0 9
-4 16 -8 16 -8 0 -53 92 -58 119 -1 7 -7 18 -13 24 -6 6 -11 21 -11 33 0 13
-5 26 -10 29 -6 4 -8 10 -5 15 3 5 1 11 -4 14 -4 3 -12 25 -16 48 -9 47 -11
57 -15 61 -1 1 -4 11 -6 22 -1 11 -5 31 -8 45 -14 64 -20 99 -32 200 -2 19 -6
85 -8 146 l-3 111 86 -19 c47 -10 97 -21 111 -23 14 -2 36 -7 50 -10 14 -3 36
-8 50 -10 14 -2 36 -7 50 -10 49 -10 113 -22 160 -29 14 -2 54 -9 90 -16 74
-14 87 -16 151 -25 26 -3 58 -8 70 -10 13 -3 44 -8 69 -11 25 -3 59 -7 75 -10
56 -10 198 -28 305 -39 25 -3 61 -7 80 -9 19 -3 60 -7 90 -10 30 -4 73 -8 95
-11 22 -3 69 -7 105 -10 36 -2 94 -7 130 -10 388 -33 941 -37 1375 -10 157 10
350 26 485 40 30 3 73 8 95 10 51 5 117 13 180 20 49 6 63 7 180 20 33 4 71 8
85 10 14 2 48 6 75 9 28 3 70 8 95 11 25 4 59 8 75 10 17 3 41 7 55 10 14 3
42 8 63 11 48 7 72 12 72 14 0 1 7 3 15 5 36 8 86 18 105 20 11 2 20 4 20 5 0
1 11 4 25 7 39 7 55 11 55 13 0 1 8 3 18 6 35 8 43 11 102 28 33 10 67 19 76
21 8 2 32 10 52 19 20 8 37 12 37 9 0 -3 7 0 15 7 8 7 15 9 15 5 0 -4 7 -2 15
5 8 7 15 9 15 5 0 -4 7 -2 15 5 8 7 15 10 15 6 0 -4 11 1 25 10 14 9 25 14 25
11 0 -7 130 45 173 69 15 8 27 12 27 9 0 -3 12 1 28 9 15 8 90 46 168 84 77
38 158 81 180 94 21 14 49 28 62 32 12 4 22 11 22 15 0 4 18 16 40 26 22 10
40 21 40 25 0 3 15 13 33 22 32 16 248 173 308 225 116 99 288 273 336 338 12
17 39 53 60 82 112 151 197 338 228 498 7 35 17 99 20 125 2 14 4 25 5 25 1 0
3 11 5 25 1 14 6 41 10 60 4 19 8 48 10 63 2 15 7 47 11 70 3 23 8 58 9 77 2
19 4 35 5 35 2 0 5 19 14 115 4 36 9 83 12 105 10 82 20 174 28 270 2 28 7 82
11 120 7 69 9 101 19 245 3 41 8 122 13 180 10 139 10 1941 0 2005 -4 28 -10
61 -13 75 -3 14 -7 39 -9 55 -3 34 -14 98 -22 129 -2 11 -6 32 -8 46 -2 14 -4
25 -5 25 -2 0 -6 17 -14 63 -4 18 -13 58 -22 90 -8 31 -17 62 -18 67 -9 34
-27 102 -30 110 -2 6 -4 13 -5 18 0 4 -7 23 -15 42 -9 20 -15 36 -15 38 0 1
-4 15 -10 30 -6 16 -11 34 -11 41 0 7 -3 16 -7 20 -5 4 -8 11 -9 14 -1 9 -12
35 -40 100 -13 29 -24 56 -24 59 0 13 -144 298 -175 348 -18 28 -52 82 -76
120 -24 39 -63 95 -86 127 -24 31 -43 61 -43 68 0 6 -4 8 -10 5 -5 -3 -10 -2
-10 4 0 5 -10 21 -22 35 -13 14 -47 54 -77 90 -75 89 -249 258 -351 339 -117
94 -206 153 -355 234 -25 14 -113 53 -119 53 -3 0 -17 5 -33 11 -15 6 -29 10
-31 9 -2 -1 -14 6 -28 14 -13 9 -24 14 -24 10 0 -4 -7 -1 -15 6 -8 7 -15 10
-15 7 0 -4 -20 2 -45 13 -25 11 -47 20 -50 20 -3 0 -10 2 -17 5 -57 18 -198
57 -218 61 -14 2 -32 7 -40 11 -8 3 -19 7 -25 8 -5 2 -30 8 -54 15 -25 6 -56
13 -70 15 -14 2 -26 4 -26 5 0 1 -7 3 -15 5 -39 7 -128 26 -150 31 -14 3 -36
7 -50 9 -14 2 -25 4 -25 5 0 2 -9 4 -20 5 -11 2 -36 6 -55 10 -19 3 -46 8 -60
10 -14 2 -37 7 -51 9 -14 3 -41 8 -60 10 -19 3 -34 5 -34 6 0 2 -23 5 -100 14
-22 3 -51 7 -65 10 -22 4 -79 11 -165 21 -16 2 -50 6 -75 10 -25 3 -63 8 -85
10 -22 2 -62 6 -90 10 -27 3 -75 8 -105 11 -30 2 -77 6 -105 9 -144 13 -176
16 -250 20 -44 2 -123 7 -175 10 -52 3 -138 9 -190 12 -123 7 -1387 13 -1393
6z"/>
</g>
</svg>
